<svg width="457" height="393" viewBox="0 0 457 393" fill="none" xmlns="http://www.w3.org/2000/svg">
<path d="M197 37L233.159 179L265 37" stroke="#2F1113" stroke-width="3"/>
<path d="M319.001 9.15439C319.001 9.15439 267.253 91.7409 234.096 173.643H319.001H346.39C372.716 122.969 406.295 95.2076 429.513 76.0122C453.399 56.2649 466.32 45.5827 449.098 28.3447C415.136 -5.64962 366.932 -5.00991 319.001 9.15439Z" fill="#79A6A3"/>
<path d="M234.096 173.643C187.033 91.7409 113.585 9.15444 113.585 9.15444C77.5229 0.0161931 50.0428 20.1203 9.50731 42.052C-31.0282 63.9838 68.3933 99.6229 113.585 173.643H164.008H234.096Z" fill="#C7D7CA"/>
<path d="M234.096 173.643H164.008C138.071 185.979 84.2787 218.603 76.6099 250.404C67.0238 290.155 126.156 335.39 145.082 332.648C160.223 330.455 210.733 225.731 234.096 173.643Z" fill="#CDA6AA"/>
<path d="M316.614 325.795C342.633 350.468 422.882 287.688 404.258 250.404C385.634 213.12 340.912 183.695 319.001 173.643H234.096L272.44 250.404L316.614 325.795Z" fill="#71282C"/>
<ellipse cx="232.567" cy="177.106" rx="8.50405" ry="63.2257" fill="#D0C9C5"/>
<path d="M93.7785 166.707L91.0384 184.995L107.337 193.012L89.3449 196.298L86.6048 214.587L78.2251 198.329L60.2329 201.615L73.0462 188.282L64.6665 172.024L80.9652 180.041L93.7785 166.707Z" fill="#79A6A3"/>
<path d="M31.2338 123.971L46.8082 133.941L60.7824 122.338L56.4337 140.103L72.0081 150.073L53.7461 151.083L49.3974 168.848L42.4595 151.706L24.1975 152.716L38.1717 141.112L31.2338 123.971Z" fill="#71282C"/>
<path d="M414.797 180.909L396.793 185.128L395.373 203.236L385.665 187.735L367.66 191.954L379.665 178.155L369.957 162.654L387.084 169.627L399.089 155.828L397.67 173.936L414.797 180.909Z" fill="#C7D7CA"/>
<path d="M429.356 108.962L425.853 127.12L441.802 135.811L423.688 138.342L420.186 156.5L412.493 139.906L394.379 142.437L407.739 129.651L400.047 113.057L415.996 121.749L429.356 108.962Z" fill="#CDA6AA"/>
<path d="M117.812 392L115.125 392.031C112.396 392.031 110.708 391.615 110.062 390.781C109.771 390.406 109.625 389.958 109.625 389.438C109.625 388.896 109.833 388.521 110.25 388.312C110.667 388.104 111.125 387.99 111.625 387.969C112.146 387.948 112.615 387.792 113.031 387.5C113.448 387.188 113.656 386.698 113.656 386.031V368.188C113.656 367.562 113.417 367.094 112.938 366.781C112.479 366.469 111.979 366.292 111.438 366.25C109.938 366.167 109.188 365.698 109.188 364.844C109.188 363.469 110.562 362.542 113.312 362.062C113.938 361.938 114.521 361.875 115.062 361.875C116.854 361.875 118.01 362.146 118.531 362.688C119.052 363.208 119.312 364.385 119.312 366.219C122.188 363.01 126.083 361.406 131 361.406C132.708 361.406 134.365 361.927 135.969 362.969C137.594 363.99 138.854 365.188 139.75 366.562C143.292 363.104 147.229 361.375 151.562 361.375C156.583 361.375 159.781 363.521 161.156 367.812C161.906 370.146 162.281 373.302 162.281 377.281V386.031C162.281 387.24 162.948 387.885 164.281 387.969C165.635 388.031 166.312 388.562 166.312 389.562C166.312 390.708 165.688 391.417 164.438 391.688C163.479 391.896 162.167 392 160.5 392L157.812 392.031C155.083 392.031 153.396 391.615 152.75 390.781C152.458 390.406 152.312 389.958 152.312 389.438C152.312 388.896 152.521 388.521 152.938 388.312C153.354 388.104 153.812 387.99 154.312 387.969C154.833 387.948 155.302 387.792 155.719 387.5C156.135 387.188 156.344 386.698 156.344 386.031V376.406C156.344 371.656 155.812 368.625 154.75 367.312C153.75 366.042 152.323 365.406 150.469 365.406C148.615 365.406 147 365.656 145.625 366.156C144.271 366.635 143.156 367.396 142.281 368.438C141.406 369.458 140.969 370.667 140.969 372.062V386.031C140.969 387.24 141.635 387.885 142.969 387.969C144.323 388.031 145 388.562 145 389.562C145 390.708 144.375 391.417 143.125 391.688C142.167 391.896 140.854 392 139.188 392L136.5 392.031C133.771 392.031 132.083 391.615 131.438 390.781C131.146 390.406 131 389.958 131 389.438C131 388.896 131.208 388.521 131.625 388.312C132.042 388.104 132.5 387.99 133 387.969C133.521 387.948 133.99 387.792 134.406 387.5C134.823 387.188 135.031 386.698 135.031 386.031V376.719C135.031 372.802 134.688 370.104 134 368.625C133 366.479 131.292 365.406 128.875 365.406C125.875 365.406 123.573 366.167 121.969 367.688C120.385 369.208 119.594 371.375 119.594 374.188V386.031C119.594 387.24 120.26 387.885 121.594 387.969C122.948 388.031 123.625 388.562 123.625 389.562C123.625 390.708 123 391.417 121.75 391.688C120.792 391.896 119.479 392 117.812 392ZM173.844 352.781C173.844 351.865 174.281 351.01 175.156 350.219C176.052 349.406 177.021 349 178.062 349C179.125 349 180.146 349.323 181.125 349.969C182.125 350.615 182.625 351.469 182.625 352.531C182.625 353.594 182.208 354.49 181.375 355.219C180.542 355.927 179.521 356.281 178.312 356.281C177.104 356.281 176.052 355.948 175.156 355.281C174.281 354.615 173.844 353.781 173.844 352.781ZM180.375 392L177.688 392.031C174.958 392.031 173.271 391.615 172.625 390.781C172.333 390.406 172.188 389.958 172.188 389.438C172.188 388.896 172.396 388.521 172.812 388.312C173.229 388.104 173.688 387.99 174.188 387.969C174.708 387.948 175.177 387.792 175.594 387.5C176.01 387.188 176.219 386.698 176.219 386.031V369.219C176.219 367.323 175.479 366.302 174 366.156C173.854 366.135 173.667 366.115 173.438 366.094C173.208 366.073 173.042 366.062 172.938 366.062C172.833 366.042 172.698 366.021 172.531 366C172.385 365.958 172.271 365.917 172.188 365.875C172.125 365.833 172.052 365.781 171.969 365.719C171.823 365.615 171.75 365.323 171.75 364.844C171.75 364.344 172.062 363.833 172.688 363.312C173.875 362.354 175.458 361.875 177.438 361.875C179.271 361.875 180.344 361.948 180.656 362.094C180.99 362.24 181.271 362.396 181.5 362.562C181.938 362.854 182.156 363.406 182.156 364.219V386.031C182.156 387.24 182.823 387.885 184.156 387.969C185.51 388.031 186.188 388.562 186.188 389.562C186.188 390.708 185.562 391.417 184.312 391.688C183.354 391.896 182.042 392 180.375 392ZM196.531 372.188C195.76 372.188 194.885 371.885 193.906 371.281C192.948 370.656 192.469 369.854 192.469 368.875C192.469 367.875 192.75 366.938 193.312 366.062C193.875 365.188 194.604 364.479 195.5 363.938C196.396 363.375 197.438 362.906 198.625 362.531C200.792 361.844 203.125 361.5 205.625 361.5C209.833 361.5 212.885 362.438 214.781 364.312C216.698 366.167 217.656 369.24 217.656 373.531L217.625 382.75C217.625 384.979 217.906 386.375 218.469 386.938C218.615 387.083 219.073 387.271 219.844 387.5C221.969 388.167 223.031 388.677 223.031 389.031C223.031 391.219 220.792 392.312 216.312 392.312C214.625 392.312 213.521 391.938 213 391.188C212.5 390.438 212.229 389.073 212.188 387.094C211.25 388.781 209.823 390.146 207.906 391.188C205.99 392.229 203.938 392.75 201.75 392.75C199.562 392.75 197.708 392.469 196.188 391.906C194.667 391.344 193.427 390.438 192.469 389.188C191.531 387.917 191.062 386.552 191.062 385.094C191.062 383.635 191.229 382.469 191.562 381.594C191.896 380.698 192.312 379.948 192.812 379.344C193.312 378.74 193.99 378.198 194.844 377.719C195.719 377.24 196.531 376.865 197.281 376.594C198.031 376.302 199 376.042 200.188 375.812C201.938 375.479 203.406 375.25 204.594 375.125C205.781 374.979 206.396 374.896 206.438 374.875C206.562 374.854 207.271 374.781 208.562 374.656C209.875 374.51 210.906 374.229 211.656 373.812C211.656 369.854 211.125 367.271 210.062 366.062C209.125 365.021 207.583 364.5 205.438 364.5C203.292 364.5 201.677 365.052 200.594 366.156C199.531 367.24 199 368.969 199 371.344L199.031 372.031C198.156 372.135 197.323 372.188 196.531 372.188ZM211.656 376.625C210.24 377.146 208.635 377.51 206.844 377.719C205.073 377.906 203.677 378.135 202.656 378.406C201.635 378.677 200.781 379.01 200.094 379.406C198.51 380.323 197.719 381.896 197.719 384.125C197.719 387.708 199.802 389.5 203.969 389.5C207.573 389.5 209.854 387.781 210.812 384.344C211.375 382.385 211.656 379.812 211.656 376.625ZM264.875 385.906C265.812 385.906 266.281 386.344 266.281 387.219C266.281 387.698 266.135 388.094 265.844 388.406C263.073 391.365 259.094 392.844 253.906 392.844C248.719 392.844 244.604 391.438 241.562 388.625C238.542 385.812 237.031 382.094 237.031 377.469C237.031 374.448 237.76 371.719 239.219 369.281C240.698 366.823 242.698 364.906 245.219 363.531C247.76 362.156 250.573 361.469 253.656 361.469C257.969 361.469 261.292 362.583 263.625 364.812C264.854 366 265.469 367.385 265.469 368.969C265.469 369.906 265.073 370.698 264.281 371.344C263.51 371.99 262.583 372.312 261.5 372.312C260.417 372.312 259.635 372.219 259.156 372.031C259.01 369.677 258.521 367.875 257.688 366.625C256.875 365.354 255.5 364.719 253.562 364.719C250.396 364.719 247.906 365.729 246.094 367.75C244.302 369.771 243.406 372.49 243.406 375.906C243.406 379.323 244.552 382.292 246.844 384.812C249.156 387.333 252.062 388.594 255.562 388.594C257.625 388.594 260.156 387.865 263.156 386.406C263.802 386.073 264.375 385.906 264.875 385.906ZM279 392L276.312 392.031C273.583 392.031 271.896 391.615 271.25 390.781C270.958 390.406 270.812 389.958 270.812 389.438C270.812 388.896 271.021 388.521 271.438 388.312C271.854 388.104 272.312 387.99 272.812 387.969C273.333 387.948 273.802 387.792 274.219 387.5C274.635 387.188 274.844 386.698 274.844 386.031V370.594C274.844 368.74 274.615 367.594 274.156 367.156C273.719 366.719 273.344 366.438 273.031 366.312C272.74 366.188 272.271 366.031 271.625 365.844C270.979 365.656 270.448 365.469 270.031 365.281C269.635 365.094 269.438 364.812 269.438 364.438C269.438 362.771 271.677 361.938 276.156 361.938C278.052 361.938 279.25 362.271 279.75 362.938C280.271 363.583 280.531 365.094 280.531 367.469C281.24 365.677 282.406 364.271 284.031 363.25C285.677 362.229 287.354 361.719 289.062 361.719C290.792 361.719 292.208 362.094 293.312 362.844C294.438 363.573 295 364.51 295 365.656C295 366.781 294.635 367.688 293.906 368.375C293.177 369.042 292.281 369.375 291.219 369.375C290.156 369.375 289.24 369.094 288.469 368.531C287.719 367.969 287.229 367.24 287 366.344C286.458 366.26 286.01 366.219 285.656 366.219C282.406 366.219 280.781 369.958 280.781 377.438V386.031C280.781 387.24 281.448 387.885 282.781 387.969C284.135 388.031 284.812 388.562 284.812 389.562C284.812 390.708 284.188 391.417 282.938 391.688C281.979 391.896 280.667 392 279 392ZM306.438 378.469C306.438 381.323 306.667 383.344 307.125 384.531C307.583 385.698 308.104 386.531 308.688 387.031C309.896 388.073 311.906 388.594 314.719 388.594C317.552 388.594 319.625 387.875 320.938 386.438C322.25 384.979 322.906 382.552 322.906 379.156V368.594C322.906 367.052 322.146 366.229 320.625 366.125C319.417 366.062 318.75 365.938 318.625 365.75C318.5 365.542 318.438 365.312 318.438 365.062C318.438 364.021 319.042 363.229 320.25 362.688C321.479 362.146 322.927 361.875 324.594 361.875C326.281 361.875 327.417 362.104 328 362.562C328.604 363.021 328.906 364.104 328.906 365.812L328.938 385.812C328.938 387.229 329.688 387.99 331.188 388.094C332.25 388.156 332.896 388.271 333.125 388.438C333.354 388.583 333.469 388.948 333.469 389.531C333.469 390.094 333.125 390.615 332.438 391.094C331.208 391.927 329.604 392.344 327.625 392.344C325.667 392.344 324.448 392.052 323.969 391.469C323.51 390.865 323.281 389.49 323.281 387.344C320.76 391.01 316.906 392.844 311.719 392.844C307.615 392.844 304.698 391.74 302.969 389.531C301.26 387.323 300.406 383.917 300.406 379.312V368.594C300.406 367.052 299.667 366.229 298.188 366.125C296.958 366.062 296.281 365.938 296.156 365.75C296.031 365.542 295.969 365.312 295.969 365.062C295.969 364.021 296.573 363.229 297.781 362.688C298.99 362.146 300.427 361.875 302.094 361.875C303.781 361.875 304.927 362.104 305.531 362.562C306.135 363.021 306.438 364.104 306.438 365.812V378.469ZM363.094 381.938C365.135 381.938 366.156 382.698 366.156 384.219C366.156 384.677 366.083 385.125 365.938 385.562L365.594 386.531C364.573 389.281 363.698 390.896 362.969 391.375C362.094 391.979 360.948 392.281 359.531 392.281L356.906 392.156H356.656L351.438 391.938L340.438 392C338.917 392 338.156 391.438 338.156 390.312C338.156 389.312 340.375 386.146 344.812 380.812C345.188 380.354 346.99 378.188 350.219 374.312L352.062 372.125C352.521 371.562 353.26 370.677 354.281 369.469C356.052 367.385 357.052 366.146 357.281 365.75C356.719 365.667 356.01 365.625 355.156 365.625L349.25 365.688H348.312L347.25 365.719L345.344 365.625V365.562C343.74 369.625 342.104 371.656 340.438 371.656C339.708 371.656 339.104 371.469 338.625 371.094C338.167 370.719 337.938 370.188 337.938 369.5C337.938 367.75 338.427 366.073 339.406 364.469C340.385 362.865 341.531 362.062 342.844 362.062H364.375C365.188 362.312 365.594 362.865 365.594 363.719C365.594 364.802 361.896 369.646 354.5 378.25C354.229 378.562 353.208 379.75 351.438 381.812L350.031 383.438C349.74 383.792 349.292 384.292 348.688 384.938C347.438 386.271 346.583 387.292 346.125 388C346.896 388.208 347.927 388.312 349.219 388.312H352.781C355.156 388.312 357.198 388.229 358.906 388.062V388.094C359.198 387.823 359.573 387.156 360.031 386.094C360.49 385.01 360.969 384.052 361.469 383.219C361.99 382.365 362.531 381.938 363.094 381.938Z" fill="#2F1113"/>
</svg>
